<svg xmlns="http://www.w3.org/2000/svg" version="1.1" xmlns:xlink="http://www.w3.org/1999/xlink" xmlns:svgjs="http://svgjs.dev/svgjs" width="128" height="128" viewBox="0 0 128 128"><g transform="matrix(0.8046875,0,0,0.8046875,12.214903938969442,6.962832153320306)"><svg viewBox="0 0 87 96" data-background-color="#ffffff" preserveAspectRatio="xMidYMid meet" height="141" width="128" xmlns="http://www.w3.org/2000/svg" xmlns:xlink="http://www.w3.org/1999/xlink"><g id="tight-bounds" transform="matrix(1,0,0,1,0.24080929426853004,0.25950000000000273)"><svg viewBox="0 0 86.51838141146294 95.481" height="95.481" width="86.51838141146294"><g><svg viewBox="0 0 86.51838141146294 95.481" height="95.481" width="86.51838141146294"><g><svg viewBox="0 0 86.51838141146294 95.481" height="95.481" width="86.51838141146294"><g id="textblocktransform"><svg viewBox="0 0 86.51838141146294 95.481" height="95.481" width="86.51838141146294" id="textblock"><g><svg viewBox="0 0 86.51838141146294 95.481" height="95.481" width="86.51838141146294"><g><svg viewBox="0 0 86.51838141146294 95.481" height="95.481" width="86.51838141146294"><g><svg xmlns="http://www.w3.org/2000/svg" xmlns:xlink="http://www.w3.org/1999/xlink" xml:space="preserve" version="1.1" style="shape-rendering:geometricPrecision;text-rendering:geometricPrecision;image-rendering:optimizeQuality;" viewBox="47.00819670912775 8 752.9061828341935 830.9012960067587" x="0" y="0" fill-rule="evenodd" clip-rule="evenodd" height="95.481" width="86.51838141146294" class="icon-icon-0" data-fill-palette-color="accent" id="icon-0"><g fill="#557536" data-fill-palette-color="accent"><path class="" d="M630 8C634 28 629 50 634 72 644 81 656 106 664 118L689 163C701 171 711 183 720 194 733 208 850 355 775 267 760 251 718 200 706 193 714 252 771 335 781 446 797 620 772 392 756 366 742 397 725 531 742 405 753 345 757 360 742 318 734 295 679 178 679 173 655 135 650 132 636 109 639 183 615 279 619 337 619 337 639 368 642 372 651 387 669 418 680 445 697 486 698 506 676 448 672 439 652 403 635 377 626 364 619 354 615 350 609 394 597 450 597 491 597 500 615 556 618 564 652 657 684 836 626 606 622 590 601 539 594 528 586 549 594 652 596 676 598 697 652 1018 592 697 576 617 586 529 590 448 601 364 607 290 613 206 584 265 557 345 534 406 503 499 458 654 528 405 548 333 580 258 597 198 605 169 608 127 607 86 599 91 592 96 585 103 583 115 572 135 567 146L548 184C548 197 544 209 542 221 538 236 492 388 516 293 521 276 536 223 535 210 498 245 468 323 395 383 283 477 428 351 439 328 411 333 310 385 406 336 452 316 444 325 466 295 478 278 533 185 537 182 551 148 551 143 561 122 510 159 432 188 394 218 394 219 382 247 381 251 375 264 362 292 348 312 328 344 314 354 344 310 349 304 364 273 374 249 379 237 383 227 383 222 350 239 306 257 277 277 271 281 241 320 237 326 188 393 79 501 211 351 220 341 246 302 250 292 232 297 163 351 148 364 135 375-62 565 132 371 180 322 245 287 304 252 367 219 421 188 483 152 427 161 359 179 306 192 227 215 98 257 304 188 363 168 431 154 480 138 517 125 568 89 605 57 604 39 602 23 600 8z" fill="#557536" data-fill-palette-color="accent"></path></g></svg></g></svg></g></svg></g></svg></g></svg></g><g></g></svg></g><defs></defs></svg><rect width="86.51838141146294" height="95.481" fill="none" stroke="none" visibility="hidden"></rect></g></svg></g></svg>